<svg
	xmlns="http://www.w3.org/2000/svg"
	width="10"
	height="10"
	viewBox="0 0 10 10"
	fill="#4a4a4f">
	<path d="m 8.2365603,1.2234571 0.539505,0.5395008 c 0.297954,0.2979423 0.297954,0.7810591 0,1.0790014 l -2.158019,2.1580793 2.158019,2.1580027 c 0.297954,0.2979425 0.297954,0.7810592 0,1.0790016 l -0.539505,0.5395007 c -0.29796,0.2979424 -0.781048,0.2979424 -1.079009,0 l -2.158021,-2.158003 -2.15802,2.158003 c -0.29796,0.2979424 -0.78105,0.2979424 -1.07901,0 L 1.2229953,8.2370429 c -0.29795302,-0.2979424 -0.29795302,-0.7810591 0,-1.0790016 l 2.15802,-2.1580027 -2.15802,-2.1580793 c -0.29795302,-0.2979423 -0.29795302,-0.7810591 0,-1.0790014 l 0.539505,-0.5395008 c 0.29796,-0.29794228 0.78105,-0.29794228 1.07901,0 l 2.15802,2.1580031 2.158021,-2.1580031 c 0.297961,-0.29794228 0.781049,-0.29794228 1.079009,0 z"/>
</svg>
