<?xml version="1.0" encoding="UTF-8" standalone="no"?>
<svg
   xmlns:dc="http://purl.org/dc/elements/1.1/"
   xmlns:cc="http://creativecommons.org/ns#"
   xmlns:rdf="http://www.w3.org/1999/02/22-rdf-syntax-ns#"
   xmlns:svg="http://www.w3.org/2000/svg"
   xmlns="http://www.w3.org/2000/svg"
   xmlns:sodipodi="http://sodipodi.sourceforge.net/DTD/sodipodi-0.dtd"
   xmlns:inkscape="http://www.inkscape.org/namespaces/inkscape"
   width="16"
   height="16"
   version="1.1">
  <g>
    <path class="plus"
       d="m 9,16 c 0.552284,0 1,-0.4477 1,-1 v -5 h 5 c 0.552285,0 1,-0.4477 1,-1 V 7 C 16,6.4477 15.552285,6 15,6 H 10 V 1 C 10,0.4477 9.552284,0 9,0 H 7 C 6.447715,0 5.999999,0.4477 5.999999,1 V 6 H 1 C 0.447715,6 0,6.4477 0,7 v 2 c 0,0.5523 0.447715,1 1,1 h 4.999999 v 5 c 0,0.5523 0.447716,1 1.000001,1 z"
       style="fill:#0c0c0d;fill-opacity:0.8;stroke:none;"/>
  </g>
</svg>
