<svg
	xmlns="http://www.w3.org/2000/svg"
	width="10"
	height="10"
	viewBox="0 0 10 10">
	<path d="m 2.3024806,8.1e-7 c -0.454754,0 -0.909272,0.170935 -1.250117,0.5117459 L 0.51129763,1.0527909 c -0.68173,0.6816774 -0.68173,1.818455 0,2.5001323 L 1.9586986,5.0002654 0.51129763,6.4476076 c -0.681729,0.6816771 -0.681729,1.8184551 0,2.5001322 L 1.0523636,9.488784 c 0.68169,0.681621 1.818544,0.681621 2.500234,0 l 1.447402,-1.4473421 1.447401,1.4473421 c 0.68169,0.681618 1.818545,0.68162 2.500235,0 l 0.541066,-0.5410442 c 0.6817304,-0.6816763 0.6817304,-1.8184558 0,-2.5001322 L 8.0413006,5.0002654 9.4887016,3.5529232 c 0.6817304,-0.6816766 0.6817314,-1.8184557 0,-2.5001323 L 8.9476356,0.51174671 c -0.68169,-0.681621 -1.818545,-0.6816191 -2.500235,0 L 4.9999996,1.9590889 3.5525976,0.51174671 C 3.2117526,0.17093581 2.7572346,8.1e-7 2.3024806,8.1e-7 Z"
       style="fill:#ffffff;fill-opacity:1;stroke:none;"/>
	<path d="m 8.2365603,1.2234571 0.539505,0.5395008 c 0.297954,0.2979423 0.297954,0.7810591 0,1.0790014 l -2.158019,2.1580793 2.158019,2.1580027 c 0.297954,0.2979425 0.297954,0.7810592 0,1.0790016 l -0.539505,0.5395007 c -0.29796,0.2979424 -0.781048,0.2979424 -1.079009,0 l -2.158021,-2.158003 -2.15802,2.158003 c -0.29796,0.2979424 -0.78105,0.2979424 -1.07901,0 L 1.2229953,8.2370429 c -0.29795302,-0.2979424 -0.29795302,-0.7810591 0,-1.0790016 l 2.15802,-2.1580027 -2.15802,-2.1580793 c -0.29795302,-0.2979423 -0.29795302,-0.7810591 0,-1.0790014 l 0.539505,-0.5395008 c 0.29796,-0.29794228 0.78105,-0.29794228 1.07901,0 l 2.15802,2.1580031 2.158021,-2.1580031 c 0.297961,-0.29794228 0.781049,-0.29794228 1.079009,0 z" style="fill:#000000;fill-opacity:1;stroke:none"/>
</svg>
