<svg xmlns="http://www.w3.org/2000/svg" viewBox="0 0 1000 531" width="1000" height="531">
	<style>
		.shp0 { fill: #ffffff } 
		.shp1 { fill: #474749 } 
		.shp2 { fill: #89898a } 
		.shp3 { fill: #323234 } 
	</style>
	<path id="Body" class="shp0" d="M0 60L1000 60L1000 531L0 531L0 60Z" />
	<g id="Groups">
		<path class="shp1" d="M505 343L787 343L787 525L505 525L505 343Z" />
		<path class="shp2" d="M517 353L613 353C614.11 353 615 353.89 615 355L615 451C615 452.11 614.11 453 613 453L517 453C515.89 453 515 452.11 515 451L515 355C515 353.89 515.89 353 517 353Z" />
		<path class="shp1" d="M505 112L787 112L787 338L505 338L505 112Z" />
		<path class="shp2" d="M517 121L613 121C614.11 121 615 121.89 615 123L615 219C615 220.11 614.11 221 613 221L517 221C515.89 221 515 220.11 515 219L515 123C515 121.89 515.89 121 517 121Z" />
		<path class="shp2" d="M627 121L723 121C724.11 121 725 121.89 725 123L725 219C725 220.11 724.11 221 723 221L627 221C625.89 221 625 220.11 625 219L625 123C625 121.89 625.89 121 627 121Z" />
		<path class="shp1" d="M255 299L499 299L499 525L255 525L255 299Z" />
		<path class="shp2" d="M267 308L363 308C364.11 308 365 308.89 365 310L365 406C365 407.11 364.11 408 363 408L267 408C265.89 408 265 407.11 265 406L265 310C265 308.89 265.89 308 267 308Z" />
		<path class="shp2" d="M378 308L474 308C475.11 308 476 308.89 476 310L476 406C476 407.11 475.11 408 474 408L378 408C376.89 408 376 407.11 376 406L376 310C376 308.89 376.89 308 378 308Z" />
		<path class="shp2" d="M268 416L364 416C365.11 416 366 416.89 366 418L366 514C366 515.11 365.11 516 364 516L268 516C266.89 516 266 515.11 266 514L266 418C266 416.89 266.89 416 268 416Z" />
		<path class="shp1" d="M6 299L249 299L249 525L6 525L6 299Z" />
		<path class="shp2" d="M126 416L222 416C223.11 416 224 416.89 224 418L224 514C224 515.11 223.11 516 222 516L126 516C124.89 516 124 515.11 124 514L124 418C124 416.89 124.89 416 126 416Z" />
		<path class="shp2" d="M126 308L222 308C223.11 308 224 308.89 224 310L224 406C224 407.11 223.11 408 222 408L126 408C124.89 408 124 407.11 124 406L124 310C124 308.89 124.89 308 126 308Z" />
		<path class="shp2" d="M16 416L112 416C113.11 416 114 416.89 114 418L114 514C114 515.11 113.11 516 112 516L16 516C14.89 516 14 515.11 14 514L14 418C14 416.89 14.89 416 16 416Z" />
		<path class="shp2" d="M16 308L112 308C113.11 308 114 308.89 114 310L114 406C114 407.11 113.11 408 112 408L16 408C14.89 408 14 407.11 14 406L14 310C14 308.89 14.89 308 16 308Z" />
		<path class="shp1" d="M6 69L500 69L500 295L6 295L6 69Z" />
		<path class="shp2" d="M16 78L112 78C113.11 78 114 78.89 114 80L114 176C114 177.11 113.11 178 112 178L16 178C14.89 178 14 177.11 14 176L14 80C14 78.89 14.89 78 16 78Z" />
		<path class="shp2" d="M126 78L222 78C223.11 78 224 78.89 224 80L224 176C224 177.11 223.11 178 222 178L126 178C124.89 178 124 177.11 124 176L124 80C124 78.89 124.89 78 126 78Z" />
		<path class="shp2" d="M236 78L332 78C333.11 78 334 78.89 334 80L334 176C334 177.11 333.11 178 332 178L236 178C234.89 178 234 177.11 234 176L234 80C234 78.89 234.89 78 236 78Z" />
		<path class="shp2" d="M346 78L442 78C443.11 78 444 78.89 444 80L444 176C444 177.11 443.11 178 442 178L346 178C344.89 178 344 177.11 344 176L344 80C344 78.89 344.89 78 346 78Z" />
		<path class="shp2" d="M16 185L112 185C113.11 185 114 185.89 114 187L114 283C114 284.11 113.11 285 112 285L16 285C14.89 285 14 284.11 14 283L14 187C14 185.89 14.89 185 16 185Z" />
	</g>
	<g id="Header">
		<path id="Bar" class="shp3" d="M0 0L1000 0L1000 60L0 60L0 0Z" />
		<path class="shp2" d="M961 14L987 14C988.11 14 989 14.89 989 16L989 42C989 43.11 988.11 44 987 44L961 44C959.89 44 959 43.11 959 42L959 16C959 14.89 959.89 14 961 14Z" />
		<path class="shp2" d="M921 14L947 14C948.11 14 949 14.89 949 16L949 42C949 43.11 948.11 44 947 44L921 44C919.89 44 919 43.11 919 42L919 16C919 14.89 919.89 14 921 14Z" />
		<path class="shp2" d="M881 14L907 14C908.11 14 909 14.89 909 16L909 42C909 43.11 908.11 44 907 44L881 44C879.89 44 879 43.11 879 42L879 16C879 14.89 879.89 14 881 14Z" />
		<path class="shp2" d="M11 14L37 14C38.11 14 39 14.89 39 16L39 42C39 43.11 38.11 44 37 44L11 44C9.89 44 9 43.11 9 42L9 16C9 14.89 9.89 14 11 14Z" />
		<path class="shp2" d="M51 14L77 14C78.11 14 79 14.89 79 16L79 42C79 43.11 78.11 44 77 44L51 44C49.89 44 49 43.11 49 42L49 16C49 14.89 49.89 14 51 14Z" />
		<path id="Address" class="shp2" d="M196 14L775 14C776.11 14 777 14.89 777 16L777 42C777 43.11 776.11 44 775 44L196 44C194.89 44 194 43.11 194 42L194 16C194 14.89 194.89 14 196 14Z" />
	</g>
</svg>