<svg xmlns="http://www.w3.org/2000/svg" viewBox="0 0 1000 531" width="1000" height="531">
	<style>
		.shp0 { fill: #ffffff } 
		.shp1 { fill: #323234 } 
		.shp2 { fill: #89898a } 
		.shp3 { fill: #474749 } 
	</style>
	<path id="Body" class="shp0" d="M0 60L1000 60L1000 531L0 531L0 60Z" />
	<g id="Header">
		<path id="Bar" class="shp1" d="M0 0L1000 0L1000 60L0 60L0 0Z" />
		<path class="shp2" d="M961 14L987 14C988.11 14 989 14.89 989 16L989 42C989 43.11 988.11 44 987 44L961 44C959.89 44 959 43.11 959 42L959 16C959 14.89 959.89 14 961 14Z" />
		<path class="shp2" d="M921 14L947 14C948.11 14 949 14.89 949 16L949 42C949 43.11 948.11 44 947 44L921 44C919.89 44 919 43.11 919 42L919 16C919 14.89 919.89 14 921 14Z" />
		<path class="shp2" d="M881 14L907 14C908.11 14 909 14.89 909 16L909 42C909 43.11 908.11 44 907 44L881 44C879.89 44 879 43.11 879 42L879 16C879 14.89 879.89 14 881 14Z" />
		<path class="shp2" d="M11 14L37 14C38.11 14 39 14.89 39 16L39 42C39 43.11 38.11 44 37 44L11 44C9.89 44 9 43.11 9 42L9 16C9 14.89 9.89 14 11 14Z" />
		<path class="shp2" d="M51 14L77 14C78.11 14 79 14.89 79 16L79 42C79 43.11 78.11 44 77 44L51 44C49.89 44 49 43.11 49 42L49 16C49 14.89 49.89 14 51 14Z" />
		<path id="Address" class="shp2" d="M196 14L775 14C776.11 14 777 14.89 777 16L777 42C777 43.11 776.11 44 775 44L196 44C194.89 44 194 43.11 194 42L194 16C194 14.89 194.89 14 196 14Z" />
	</g>
	<g id="Popup">
		<path id="Popup" class="shp3" d="M641 54L951 54L951 372L641 372L641 54Z" />
		<path id="Arrow" class="shp3" d="M939 54L934 48L929 54" />
		<path class="shp2" d="M648 58L944 58C945.11 58 946 58.89 946 60L946 86C946 87.11 945.11 88 944 88L648 88C646.89 88 646 87.11 646 86L646 60C646 58.89 646.89 58 648 58Z" />
		<path class="shp2" d="M648 93L944 93C945.11 93 946 93.89 946 95L946 121C946 122.11 945.11 123 944 123L648 123C646.89 123 646 122.11 646 121L646 95C646 93.89 646.89 93 648 93Z" />
		<path class="shp2" d="M648 128L944 128C945.11 128 946 128.89 946 130L946 156C946 157.11 945.11 158 944 158L648 158C646.89 158 646 157.11 646 156L646 130C646 128.89 646.89 128 648 128Z" />
		<path class="shp2" d="M648 163L944 163C945.11 163 946 163.89 946 165L946 191C946 192.11 945.11 193 944 193L648 193C646.89 193 646 192.11 646 191L646 165C646 163.89 646.89 163 648 163Z" />
		<path class="shp2" d="M648 198L944 198C945.11 198 946 198.89 946 200L946 226C946 227.11 945.11 228 944 228L648 228C646.89 228 646 227.11 646 226L646 200C646 198.89 646.89 198 648 198Z" />
		<path class="shp2" d="M648 233L944 233C945.11 233 946 233.89 946 235L946 261C946 262.11 945.11 263 944 263L648 263C646.89 263 646 262.11 646 261L646 235C646 233.89 646.89 233 648 233Z" />
		<path class="shp2" d="M648 268L944 268C945.11 268 946 268.89 946 270L946 296C946 297.11 945.11 298 944 298L648 298C646.89 298 646 297.11 646 296L646 270C646 268.89 646.89 268 648 268Z" />
		<path class="shp2" d="M648 303L944 303C945.11 303 946 303.89 946 305L946 331C946 332.11 945.11 333 944 333L648 333C646.89 333 646 332.11 646 331L646 305C646 303.89 646.89 303 648 303Z" />
		<path class="shp2" d="M648 338L944 338C945.11 338 946 338.89 946 340L946 366C946 367.11 945.11 368 944 368L648 368C646.89 368 646 367.11 646 366L646 340C646 338.89 646.89 338 648 338Z" />
	</g>
</svg>